<?xml version="1.0" encoding="UTF-8"?><svg id="Layer_2" xmlns="http://www.w3.org/2000/svg" viewBox="0 0 787.9 167.88"><defs><style>.cls-1{fill:#fed9c5;}.cls-2{fill:#6864b9;}.cls-3{fill:#4e4b8b;}</style></defs><g id="Layer_1-2"><g><polygon class="cls-2" points="39.95 0 83.9 87.9 63.92 127.85 0 0 39.95 0"/><polygon class="cls-2" points="127.85 0 107.84 40.03 103.88 47.94 99.93 40.03 79.91 0 127.85 0"/><polygon class="cls-2" points="127.85 0 107.84 40.03 103.88 47.94 99.93 40.03 79.91 0 127.85 0"/><polygon class="cls-1" points="187.84 40.03 123.92 167.88 103.89 127.83 123.85 87.9 147.79 40.03 187.84 40.03"/><g><path class="cls-3" d="m305.15,39.84l-29.91,83.99h-21.87l-29.91-83.99h21.11l19.3,62.39h.88l19.36-62.39h21.05Z"/><path class="cls-3" d="m353.1,125.46c-8.42,0-15.68-1.76-21.79-5.28s-10.8-8.51-14.08-14.98c-3.28-6.47-4.92-14.1-4.92-22.88s1.65-16.23,4.95-22.77c3.3-6.54,7.92-11.65,13.86-15.31,5.94-3.66,12.92-5.5,20.94-5.5,5.18,0,10.07.83,14.68,2.49,4.61,1.66,8.69,4.22,12.25,7.68,3.55,3.46,6.35,7.87,8.39,13.21,2.04,5.34,3.06,11.69,3.06,19.06v6.07h-68.84v-13.34h49.87c-.04-3.79-.86-7.17-2.46-10.14-1.6-2.97-3.84-5.31-6.7-7.03-2.86-1.71-6.19-2.57-9.98-2.57-4.05,0-7.6.98-10.66,2.93-3.06,1.95-5.44,4.5-7.14,7.65-1.7,3.15-2.56,6.61-2.6,10.36v11.65c0,4.88.89,9.07,2.68,12.55,1.79,3.48,4.28,6.14,7.49,7.98,3.21,1.84,6.96,2.76,11.26,2.76,2.88,0,5.49-.41,7.82-1.23s4.36-2.03,6.07-3.64c1.71-1.6,3.01-3.59,3.88-5.96l18.48,2.08c-1.17,4.88-3.38,9.14-6.64,12.77s-7.43,6.43-12.49,8.42c-5.07,1.99-10.86,2.98-17.39,2.98Z"/><path class="cls-3" d="m426.97,11.84v111.98h-19.79V11.84h19.79Z"/><path class="cls-3" d="m478.48,125.3c-6.6,0-12.5-1.7-17.72-5.08-5.21-3.39-9.33-8.31-12.36-14.76-3.03-6.45-4.54-14.29-4.54-23.51s1.54-17.21,4.62-23.65c3.08-6.43,7.25-11.3,12.49-14.6,5.25-3.3,11.1-4.95,17.55-4.95,4.92,0,8.97.83,12.14,2.49,3.17,1.66,5.69,3.65,7.54,5.96,1.86,2.32,3.3,4.49,4.32,6.53h.82V11.84h19.85v111.98h-19.47v-13.23h-1.2c-1.02,2.04-2.5,4.2-4.43,6.48-1.93,2.28-4.48,4.22-7.65,5.82-3.17,1.6-7.16,2.41-11.97,2.41Zm5.52-16.24c4.19,0,7.76-1.14,10.72-3.42,2.95-2.28,5.19-5.46,6.73-9.54,1.53-4.08,2.3-8.84,2.3-14.27s-.76-10.15-2.27-14.16c-1.51-4.01-3.74-7.13-6.67-9.35-2.93-2.22-6.53-3.34-10.8-3.34s-8.09,1.15-11.04,3.44c-2.95,2.3-5.18,5.47-6.67,9.51-1.5,4.05-2.24,8.68-2.24,13.89s.76,9.92,2.27,14.03c1.51,4.1,3.75,7.33,6.73,9.68,2.97,2.35,6.62,3.53,10.96,3.53Z"/><path class="cls-3" d="m581.54,125.46c-8.42,0-15.68-1.76-21.79-5.28s-10.8-8.51-14.08-14.98c-3.28-6.47-4.92-14.1-4.92-22.88s1.65-16.23,4.95-22.77c3.3-6.54,7.92-11.65,13.86-15.31,5.94-3.66,12.92-5.5,20.94-5.5,5.18,0,10.07.83,14.68,2.49,4.61,1.66,8.69,4.22,12.25,7.68,3.55,3.46,6.35,7.87,8.39,13.21,2.04,5.34,3.06,11.69,3.06,19.06v6.07h-68.84v-13.34h49.87c-.04-3.79-.86-7.17-2.46-10.14-1.6-2.97-3.84-5.31-6.7-7.03-2.86-1.71-6.19-2.57-9.98-2.57-4.05,0-7.6.98-10.66,2.93-3.06,1.95-5.44,4.5-7.14,7.65-1.7,3.15-2.56,6.61-2.6,10.36v11.65c0,4.88.89,9.07,2.68,12.55,1.79,3.48,4.28,6.14,7.49,7.98,3.21,1.84,6.96,2.76,11.26,2.76,2.88,0,5.49-.41,7.82-1.23s4.36-2.03,6.07-3.64c1.71-1.6,3.01-3.59,3.88-5.96l18.48,2.08c-1.17,4.88-3.38,9.14-6.64,12.77s-7.43,6.43-12.49,8.42c-5.07,1.99-10.86,2.98-17.39,2.98Z"/><path class="cls-3" d="m708.18,39.84l-29.91,83.99h-21.87l-29.91-83.99h21.11l19.3,62.39h.88l19.36-62.39h21.05Z"/><path class="cls-3" d="m743.56,125.52c-5.32,0-10.11-.96-14.35-2.87-4.25-1.91-7.6-4.75-10.06-8.5-2.46-3.75-3.69-8.38-3.69-13.89,0-4.74.88-8.66,2.62-11.76,1.75-3.1,4.14-5.58,7.16-7.44,3.03-1.86,6.44-3.27,10.25-4.24,3.81-.96,7.75-1.67,11.84-2.1,4.92-.51,8.91-.98,11.97-1.39,3.06-.42,5.29-1.07,6.7-1.97,1.4-.89,2.11-2.29,2.11-4.18v-.33c0-4.12-1.22-7.31-3.66-9.57-2.44-2.26-5.96-3.39-10.55-3.39-4.85,0-8.69,1.06-11.51,3.17-2.83,2.11-4.73,4.61-5.71,7.49l-18.48-2.62c1.46-5.1,3.86-9.38,7.22-12.82,3.35-3.44,7.45-6.03,12.3-7.76,4.85-1.73,10.21-2.6,16.08-2.6,4.05,0,8.07.47,12.08,1.42,4.01.95,7.67,2.51,10.99,4.67,3.32,2.17,5.99,5.11,8.01,8.83,2.02,3.72,3.03,8.37,3.03,13.94v56.21h-19.03v-11.54h-.66c-1.2,2.33-2.89,4.51-5.06,6.53s-4.88,3.65-8.15,4.87c-3.26,1.22-7.08,1.83-11.46,1.83Zm5.14-14.54c3.97,0,7.42-.79,10.33-2.38,2.92-1.59,5.17-3.69,6.75-6.32,1.59-2.62,2.38-5.49,2.38-8.58v-9.9c-.62.51-1.67.98-3.14,1.42s-3.13.82-4.95,1.15c-1.82.33-3.63.62-5.41.87-1.79.26-3.33.47-4.65.66-2.95.4-5.6,1.06-7.93,1.97s-4.17,2.18-5.52,3.8c-1.35,1.62-2.02,3.71-2.02,6.26,0,3.65,1.33,6.4,3.99,8.26,2.66,1.86,6.05,2.79,10.17,2.79Z"/></g></g></g></svg>